<?xml version="1.0" standalone="no"?><!DOCTYPE svg PUBLIC "-//W3C//DTD SVG 1.1//EN" "http://www.w3.org/Graphics/SVG/1.1/DTD/svg11.dtd"><svg t="1762971320748" class="icon" viewBox="0 0 1024 1024" version="1.1" xmlns="http://www.w3.org/2000/svg" p-id="2188" xmlns:xlink="http://www.w3.org/1999/xlink" width="200" height="200"><path d="M669.15 688.41c-1.38 0.51-267.62 6.89-267.62 6.89l-30.06 20.03 36.11 54.19c3.36 5.03 9 8.04 15.03 8.04 110.38 0 253.2-53.07 259.21-55.32l-12.67-33.83z" fill="#A0D468" p-id="2189"></path><path d="M242.02 470.51H97.5c-9.97 0-18.04 8.08-18.04 18.06v72.24c0 9.98 8.07 18.07 18.04 18.07h144.51c9.98 0 18.04-8.1 18.04-18.07v-72.24c0.01-9.97-8.06-18.06-18.03-18.06z" fill="#E6E9ED" p-id="2190"></path><path d="M709.58 687.2c0.53 0.03 0.9 0.04 1.03 0.04l1.27-36.1c-0.48-0.01-45.98-1.63-94.77-6.83-89.4-9.5-107.42-22.2-110.12-24.64-12.62-11.43-25.56-38.34-15.43-101.57 6.59-41.09 20.06-76.95 20.19-77.31 2.12-5.54 1.35-11.77-2.01-16.65-3.39-4.9-8.94-7.81-14.87-7.81H278.13c-7.06 0-13.47 4.12-16.41 10.52l-37.33 81.28 32.83 15.08 75.09 164.05v36.11h378.93v-36.11h-1.67v-0.06z" fill="#E6E9ED" p-id="2191"></path><path d="M242.02 705.31m-108.37 0a108.37 108.37 0 1 0 216.74 0 108.37 108.37 0 1 0-216.74 0Z" fill="#434A54" p-id="2192"></path><path d="M223.95 705.32a18.05 18.07 0 1 0 36.1 0 18.05 18.07 0 1 0-36.1 0Z" fill="#F5F7FA" p-id="2193"></path><path d="M838.06 705.31m-108.37 0a108.37 108.37 0 1 0 216.74 0 108.37 108.37 0 1 0-216.74 0Z" fill="#434A54" p-id="2194"></path><path d="M675.5 314.73c0.45 1.79 45.69 180.88 61.78 372.53l66.46-112.7-56.01-266.6-72.23 6.77z" fill="#E6E9ED" p-id="2195"></path><path d="M838.03 723.39c-8.41 0-15.93-5.9-17.67-14.46l-18.07-88.5c-1.99-9.78 4.31-19.31 14.07-21.31 9.79-2 19.31 4.31 21.32 14.09l18.07 88.5c1.99 9.78-4.34 19.31-14.1 21.31-1.21 0.25-2.42 0.37-3.62 0.37z" fill="#F5F7FA" p-id="2196"></path><path d="M821.52 344.88l-19.87-112.31c-1.61-9.13-9.9-15.54-19.1-14.87-1.22 0.08-30.24 2.31-59.61 14.09-54.13 21.72-65.51 57.1-65.51 82.94 0 22.4 9.68 39.78 28.05 50.27 12.91 7.38 30.11 11.14 51.17 11.14h0.03c35.22 0 70.67-10.34 72.18-10.78 8.8-2.61 14.25-11.42 12.66-20.48z" fill="#A0D468" p-id="2197"></path><path d="M350.39 669.19m-54.19 0a54.19 54.19 0 1 0 108.38 0 54.19 54.19 0 1 0-108.38 0Z" fill="#CCD1D9" p-id="2198"></path><path d="M530.99 452.44H242.02c-9.98 0-18.07-8.08-18.07-18.06v-18.06c0-9.98 8.09-18.07 18.07-18.07h288.97c9.98 0 18.07 8.1 18.07 18.07v18.06c0 9.98-8.09 18.06-18.07 18.06z" fill="#434A54" p-id="2199"></path><path d="M639.39 362.14c-6.64 0-13.02-3.68-16.19-10.01-4.44-8.93-0.79-19.78 8.12-24.22l72.58-36.13c8.94-4.43 19.76-0.81 24.21 8.12 4.45 8.93 0.82 19.78-8.12 24.22l-72.55 36.13c-2.6 1.28-5.35 1.89-8.05 1.89z" fill="#E6E9ED" p-id="2200"></path><path d="M97.5 578.89h36.14V470.51H97.5c-9.97 0-18.04 8.08-18.04 18.06v72.24c0 9.98 8.07 18.08 18.04 18.08z" fill="#ED5564" p-id="2201"></path><path d="M944.66 625.25c-1.43-2.96-35.75-72.72-111.6-72.72-14.5 0-29.58 2.65-44.9 7.87-55.16 18.84-78 57.93-87.44 87.4-10.03 31.3-7.17 58.37-7.07 59.5 0.74 6.53 4.97 12.16 11.06 14.68a18.01 18.01 0 0 0 18.18-2.58c0.45-0.36 45.4-35.94 108.77-60.38 21.77-8.4 46.22-10.16 62.89-10.16 17.96 0 30.85 2.01 30.95 2.02a18.068 18.068 0 0 0 17.33-7.03c4.02-5.35 4.71-12.53 1.83-18.6zM440.56 648.89c-0.21-1.6-5.13-39.63-24.37-78.08-26.88-53.8-68.39-82.23-119.99-82.23-48.07 0-89.37 8.2-122.74 24.38-27.59 13.37-49.79 32.11-66.01 55.69-27.68 40.27-27.99 80.76-27.99 82.47 0 9.98 8.07 18.06 18.04 18.06h325.11c5.19 0 10.13-2.22 13.55-6.1 3.45-3.88 5.03-9.06 4.4-14.19z" fill="#A0D468" p-id="2202"></path></svg>